<?xml version="1.0" encoding="UTF-8"?><svg id="Layer_2" xmlns="http://www.w3.org/2000/svg" viewBox="0 0 20 16"><g id="Layer_1-2"><path d="M14.6,3.18c-1.44,.52-2.87,1.03-4.31,1.55-1.54,.55-3.07,1.11-4.62,1.62-.26,.09-.69,.05-.89-.11C3.31,5.14,1.87,4.01,.46,2.84,.2,2.62-.02,2.17,0,1.84c.03-.53,.54-.69,1.06-.72,1.37-.08,2.74-.18,4.11-.27,3.97-.26,7.93-.52,11.9-.78,.65-.04,1.31-.08,1.96-.07,.95,.02,1.24,.58,.71,1.36-.73,1.07-1.48,2.12-2.23,3.18-2.27,3.19-4.54,6.37-6.81,9.55-.35,.5-.68,1.02-1.09,1.47-.22,.23-.65,.49-.9,.43-.31-.07-.69-.44-.75-.74-.36-1.77-.63-3.55-.96-5.32-.1-.53,.18-.8,.56-1.09,2.3-1.75,4.58-3.51,6.87-5.27,.09-.07,.18-.16,.27-.23-.03-.05-.06-.1-.09-.16Z"/></g></svg>